<?xml version="1.0" encoding="UTF-8"?>
<!-- Generator: visioncortex VTracer 0.6.3 -->
<svg version="1.1" xmlns="http://www.w3.org/2000/svg" width="1280" height="474">
<path d="M0 0 C1.28 0 1.28 0 2.58 0 C3.47 -0 4.37 -0.01 5.29 -0.01 C8.25 -0.02 11.22 -0.02 14.19 -0.02 C16.24 -0.02 18.3 -0.03 20.35 -0.03 C24.66 -0.04 28.98 -0.04 33.29 -0.04 C38.82 -0.04 44.36 -0.05 49.89 -0.07 C54.13 -0.08 58.38 -0.08 62.62 -0.08 C64.66 -0.08 66.71 -0.09 68.75 -0.1 C71.6 -0.11 74.45 -0.1 77.3 -0.1 C78.57 -0.1 78.57 -0.1 79.87 -0.11 C83.79 -0.09 85.74 -0.08 89.07 2.15 C89.77 3.89 89.77 3.89 90.24 6.03 C90.43 6.84 90.61 7.66 90.8 8.49 C90.99 9.39 91.18 10.29 91.38 11.21 C91.59 12.15 91.8 13.1 92.01 14.07 C92.72 17.24 93.4 20.41 94.09 23.58 C94.58 25.81 95.07 28.05 95.57 30.28 C96.89 36.29 98.2 42.29 99.51 48.3 C100.86 54.48 102.22 60.66 103.58 66.84 C105.75 76.68 107.91 86.53 110.06 96.37 C113.54 112.31 117.05 128.24 120.57 144.17 C121.52 148.48 122.47 152.8 123.42 157.12 C123.85 159.12 124.29 161.11 124.73 163.1 C125.25 165.47 125.77 167.83 126.28 170.2 C126.62 171.72 126.62 171.72 126.96 173.28 C127.15 174.15 127.34 175.03 127.54 175.93 C128.07 178.3 128.07 178.3 129.07 181.15 C130.44 176.43 131.71 171.7 132.88 166.93 C133.13 165.9 133.13 165.9 133.39 164.84 C133.96 162.56 134.52 160.28 135.08 157.99 C135.48 156.36 135.88 154.73 136.28 153.1 C137.14 149.62 138 146.14 138.86 142.65 C141.12 133.46 143.38 124.27 145.65 115.08 C146 113.69 146 113.69 146.35 112.27 C150.67 94.76 155.01 77.25 159.39 59.75 C159.87 57.81 160.36 55.86 160.85 53.92 C162.61 46.83 164.39 39.74 166.18 32.66 C166.96 29.57 167.74 26.48 168.51 23.38 C169.3 20.25 170.1 17.12 170.89 13.98 C171.18 12.82 171.47 11.66 171.77 10.46 C172.18 8.87 172.18 8.87 172.6 7.24 C172.83 6.3 173.07 5.36 173.31 4.4 C174.07 2.15 174.07 2.15 176.07 0.15 C178.89 -0.05 181.61 -0.12 184.44 -0.1 C185.3 -0.1 186.17 -0.1 187.06 -0.1 C189.93 -0.11 192.8 -0.1 195.66 -0.08 C197.65 -0.08 199.64 -0.08 201.63 -0.08 C205.8 -0.08 209.97 -0.07 214.14 -0.06 C219.49 -0.04 224.84 -0.04 230.2 -0.04 C234.3 -0.04 238.41 -0.03 242.51 -0.03 C244.49 -0.02 246.46 -0.02 248.44 -0.02 C251.19 -0.02 253.95 -0.01 256.71 0 C257.94 0 257.94 0 259.2 0 C264.84 0.03 264.84 0.03 267.07 1.15 C267.07 100.48 267.07 199.81 267.07 302.15 C247.27 302.15 227.47 302.15 207.07 302.15 C206.74 221.96 206.41 141.77 206.07 59.15 C202.67 72.75 202.67 72.75 199.38 86.38 C199.14 87.39 198.9 88.41 198.65 89.45 C197.86 92.76 197.08 96.08 196.29 99.39 C195.73 101.77 195.16 104.16 194.6 106.54 C193.24 112.25 191.89 117.96 190.54 123.67 C189.44 128.28 188.35 132.9 187.25 137.51 C180.73 165.02 174.21 192.52 167.73 220.03 C167.48 221.06 167.24 222.1 166.99 223.16 C164.72 232.79 162.45 242.42 160.19 252.05 C152.17 286.16 152.17 286.16 148.07 302.15 C141.27 302.22 134.47 302.28 127.67 302.31 C125.36 302.33 123.04 302.35 120.73 302.37 C117.41 302.41 114.09 302.43 110.77 302.44 C109.21 302.46 109.21 302.46 107.62 302.49 C106.17 302.49 106.17 302.49 104.7 302.49 C103.43 302.5 103.43 302.5 102.13 302.51 C101.45 302.39 100.77 302.27 100.07 302.15 C98.06 299.14 97.52 297.36 96.77 293.88 C96.54 292.78 96.3 291.69 96.05 290.56 C95.8 289.35 95.55 288.15 95.28 286.9 C94.87 284.99 94.87 284.99 94.45 283.05 C93.7 279.53 92.95 276.01 92.2 272.49 C91.4 268.75 90.6 265.01 89.8 261.27 C88.42 254.88 87.06 248.49 85.69 242.1 C83.58 232.17 81.45 222.25 79.33 212.33 C78.8 209.85 78.27 207.38 77.74 204.91 C77.38 203.26 77.03 201.62 76.68 199.97 C75.62 195.05 74.57 190.13 73.52 185.2 C69.39 165.9 65.23 146.61 61.01 127.33 C60.58 125.33 60.14 123.33 59.7 121.33 C57.95 113.33 56.2 105.34 54.44 97.34 C53.75 94.22 53.07 91.1 52.39 87.97 C52.08 86.57 51.77 85.17 51.46 83.77 C51.04 81.9 50.64 80.03 50.23 78.16 C50 77.13 49.78 76.11 49.55 75.05 C49.05 72.04 49.06 69.19 49.07 66.15 C48.74 65.82 48.41 65.49 48.07 65.15 C48.03 63.15 48.03 61.15 48.07 59.15 C47.41 59.15 46.75 59.15 46.07 59.15 C46.07 139.34 46.07 219.53 46.07 302.15 C28.91 302.15 11.75 302.15 -5.93 302.15 C-6.08 263.82 -6.22 225.49 -6.36 187.16 C-6.38 182.64 -6.4 178.12 -6.41 173.6 C-6.41 172.7 -6.42 171.8 -6.42 170.87 C-6.47 156.28 -6.53 141.69 -6.59 127.1 C-6.65 112.14 -6.7 97.18 -6.75 82.22 C-6.79 72.98 -6.82 63.74 -6.86 54.5 C-6.89 48.18 -6.91 41.85 -6.93 35.52 C-6.94 31.87 -6.95 28.21 -6.97 24.56 C-6.99 20.6 -7 16.65 -7.01 12.69 C-7.02 11.53 -7.03 10.36 -7.03 9.15 C-7.03 8.1 -7.04 7.05 -7.04 5.97 C-7.04 5.06 -7.04 4.14 -7.05 3.2 C-6.8 -1.17 -3.65 0.02 0 0 Z " fill="#FAFCFC" transform="translate(252.92953491210938,2.853363037109375)"/>
<path d="M0 0 C0.92 -0 1.85 -0.01 2.8 -0.01 C3.83 -0.01 4.85 -0.01 5.9 -0.01 C7.51 -0.02 7.51 -0.02 9.15 -0.02 C12.72 -0.03 16.29 -0.03 19.87 -0.03 C22.35 -0.04 24.84 -0.04 27.33 -0.04 C32.56 -0.05 37.79 -0.05 43.03 -0.05 C49.69 -0.05 56.35 -0.07 63.01 -0.08 C68.16 -0.09 73.31 -0.1 78.46 -0.09 C80.91 -0.1 83.36 -0.1 85.81 -0.11 C114 -0.19 138.54 0.63 160.72 20.13 C161.86 21.13 161.86 21.13 163.03 22.15 C179.35 37.4 187.31 59.42 188.08 81.46 C188.13 84.3 188.13 87.14 188.11 89.99 C188.09 92.13 188.11 94.28 188.13 96.42 C188.16 119.03 182.04 140.09 166.72 157.13 C161.19 162.66 155.5 167.24 148.72 171.13 C150.75 177.49 153.07 183.67 155.61 189.83 C155.99 190.76 156.37 191.69 156.76 192.65 C158.02 195.71 159.27 198.76 160.53 201.82 C161.41 203.98 162.3 206.13 163.18 208.29 C164.57 211.68 165.96 215.08 167.35 218.48 C172.77 231.69 178.15 244.91 183.53 258.13 C184.9 261.49 186.26 264.84 187.63 268.2 C188.48 270.29 189.33 272.38 190.18 274.48 C192.07 279.12 193.97 283.75 195.94 288.36 C196.28 289.15 196.61 289.95 196.96 290.76 C197.58 292.21 198.2 293.66 198.84 295.1 C200.83 299.8 200.83 299.8 199.72 303.13 C190.77 303.1 181.83 303.04 172.88 302.95 C168.73 302.91 164.58 302.88 160.42 302.86 C156.42 302.85 152.41 302.81 148.4 302.77 C146.87 302.75 145.34 302.74 143.81 302.74 C141.67 302.74 139.53 302.71 137.39 302.68 C135.56 302.67 135.56 302.67 133.7 302.65 C130.72 302.13 130.72 302.13 128.87 300.28 C127.43 297.6 126.57 294.98 125.72 292.07 C125.38 290.92 125.04 289.77 124.69 288.58 C123.83 285.54 123.02 282.5 122.22 279.45 C121.05 275.08 119.55 270.97 117.78 266.81 C116.26 262.97 115 259.06 113.72 255.13 C113.41 254.18 113.1 253.23 112.78 252.24 C111.75 249.08 110.73 245.92 109.72 242.76 C109.37 241.7 109.03 240.64 108.68 239.55 C107.07 234.55 105.54 229.55 104.22 224.47 C103.04 220.05 101.49 215.91 99.74 211.69 C97.91 207.11 96.45 202.4 94.97 197.7 C94.65 196.72 94.34 195.74 94.01 194.73 C93.71 193.79 93.42 192.85 93.11 191.89 C92.84 191.05 92.57 190.2 92.3 189.34 C91.72 187.13 91.72 187.13 91.72 184.13 C81.49 184.13 71.26 184.13 60.72 184.13 C60.39 223.07 60.06 262.01 59.72 302.13 C38.6 302.13 17.48 302.13 -4.28 302.13 C-4.43 263.81 -4.58 225.48 -4.72 187.15 C-4.73 182.63 -4.75 178.11 -4.76 173.59 C-4.77 172.69 -4.77 171.79 -4.77 170.86 C-4.83 156.27 -4.88 141.68 -4.94 127.09 C-5 112.13 -5.06 97.17 -5.11 82.21 C-5.14 72.97 -5.17 63.73 -5.21 54.49 C-5.24 48.16 -5.26 41.84 -5.28 35.51 C-5.29 31.85 -5.31 28.2 -5.32 24.54 C-5.34 20.59 -5.35 16.64 -5.36 12.68 C-5.37 11.51 -5.38 10.34 -5.39 9.14 C-5.39 8.09 -5.39 7.04 -5.39 5.96 C-5.39 5.04 -5.4 4.13 -5.4 3.19 C-5.18 -0.59 -3.31 0.01 0 0 Z M96.72 1.13 C96.72 1.46 96.72 1.79 96.72 2.13 C100.68 2.13 104.64 2.13 108.72 2.13 C108.72 1.8 108.72 1.47 108.72 1.13 C104.76 1.13 100.8 1.13 96.72 1.13 Z M59.72 52.13 C59.53 54.72 59.47 57.21 59.49 59.8 C59.49 60.59 59.49 61.38 59.49 62.19 C59.49 64.81 59.51 67.43 59.52 70.05 C59.53 71.86 59.53 73.67 59.53 75.49 C59.54 80.26 59.56 85.04 59.58 89.82 C59.6 94.69 59.61 99.57 59.62 104.44 C59.64 114 59.68 123.57 59.72 133.13 C65.07 133.23 70.42 133.31 75.78 133.35 C77.59 133.37 79.41 133.4 81.23 133.44 C92.99 133.66 102.8 133.57 113.03 127.01 C123.45 115.86 124.79 102.75 124.72 88.13 C123.96 76.73 120.87 65.29 112.59 57.01 C101.88 50.02 90.82 49.95 78.41 49.95 C76.33 49.95 74.25 49.93 72.17 49.91 C70.2 49.91 70.2 49.91 68.19 49.9 C66.4 49.9 66.4 49.9 64.57 49.89 C61.59 49.84 61.59 49.84 59.72 52.13 Z M124.72 84.13 C125.72 88.13 125.72 88.13 125.72 88.13 Z M124.72 96.13 C125.72 100.13 125.72 100.13 125.72 100.13 Z M60.72 134.13 C60.72 134.46 60.72 134.79 60.72 135.13 C71.28 135.13 81.84 135.13 92.72 135.13 C92.72 134.8 92.72 134.47 92.72 134.13 C82.16 134.13 71.6 134.13 60.72 134.13 Z " fill="#FAFCFC" transform="translate(885.2823181152344,2.8662872314453125)"/>
<path d="M0 0 C3.5 1.17 3.68 1.68 5.39 4.78 C5.84 5.59 6.3 6.4 6.77 7.23 C7.26 8.12 7.75 9.02 8.25 9.94 C9.33 11.87 10.42 13.81 11.5 15.74 C12.07 16.77 12.64 17.79 13.23 18.85 C16.19 24.11 19.22 29.34 22.25 34.56 C29.54 47.17 36.77 59.82 43.98 72.47 C46.99 77.73 49.99 82.99 53 88.25 C54.67 91.17 56.33 94.08 58 97 C58.67 98.17 59.33 99.33 60 100.5 C61.33 102.83 62.67 105.17 64 107.5 C64.33 108.08 64.66 108.65 65 109.25 C65.67 110.42 66.33 111.58 67 112.75 C68.67 115.67 70.33 118.58 72 121.5 C75.01 126.76 78.02 132.03 81.03 137.3 C82.7 140.24 84.38 143.18 86.06 146.12 C86.56 146.99 86.56 146.99 87.07 147.88 C91.89 156.33 96.75 164.76 101.62 173.19 C106.59 181.77 111.48 190.4 116.31 199.06 C120.47 206.52 124.68 213.94 129.05 221.28 C132.98 227.92 136.8 234.61 140.62 241.31 C140.96 241.9 141.3 242.49 141.65 243.1 C144.1 247.4 146.55 251.7 149 256 C151.53 260.44 154.06 264.88 156.59 269.31 C157.59 271.07 158.59 272.83 159.6 274.59 C162.96 280.47 166.37 286.31 169.95 292.07 C171 294 171 294 171 296 C59.13 296 -52.74 296 -168 296 C-167.12 291.59 -166.25 289.26 -164.11 285.45 C-163.51 284.37 -162.91 283.29 -162.29 282.18 C-161.63 281.02 -160.97 279.85 -160.31 278.69 C-159.63 277.47 -158.95 276.26 -158.27 275.05 C-153.35 266.28 -148.3 257.6 -143.21 248.93 C-138.99 241.73 -134.88 234.48 -130.81 227.19 C-125.47 217.6 -120.03 208.08 -114.51 198.59 C-106.15 184.22 -97.87 169.81 -89.7 155.33 C-81.18 140.21 -72.53 125.17 -63.85 110.14 C-57.2 98.63 -50.61 87.08 -44.02 75.53 C-42.01 72.02 -40 68.51 -38 64.99 C-37.67 64.41 -37.34 63.84 -37 63.24 C-35.34 60.34 -33.68 57.43 -32.02 54.53 C-28.95 49.16 -25.88 43.79 -22.82 38.42 C-2.21 2.21 -2.21 2.21 0 0 Z M1 116 C-3.9 122.43 -7.75 129.65 -11.72 136.67 C-13.49 139.8 -15.26 142.93 -17.04 146.05 C-17.39 146.67 -17.74 147.28 -18.1 147.91 C-20.71 152.51 -23.37 157.08 -26.06 161.62 C-30.18 168.57 -34.22 175.56 -38.25 182.56 C-44.86 194.04 -51.52 205.49 -58.2 216.93 C-61.43 222.45 -64.65 227.97 -67.88 233.5 C-69.06 235.53 -70.24 237.56 -71.43 239.59 C-71.93 240.45 -72.42 241.3 -72.94 242.18 C-73.46 243.08 -73.46 243.08 -74 244 C-72.17 246.25 -72.17 246.25 -69.49 246.25 C-68.42 246.24 -67.35 246.24 -66.25 246.24 C-65.03 246.24 -63.81 246.25 -62.55 246.25 C-61.19 246.24 -59.82 246.23 -58.46 246.23 C-57.03 246.23 -55.6 246.23 -54.18 246.23 C-50.29 246.23 -46.4 246.22 -42.52 246.2 C-38.46 246.19 -34.4 246.19 -30.34 246.19 C-22.65 246.18 -14.96 246.16 -7.28 246.14 C1.48 246.12 10.23 246.11 18.98 246.1 C36.99 246.08 54.99 246.04 73 246 C72.3 242.12 71.26 239.29 69.3 235.85 C68.45 234.36 68.45 234.36 67.6 232.84 C66.68 231.25 66.68 231.25 65.75 229.62 C65.12 228.52 64.49 227.41 63.84 226.26 C62.54 223.96 61.23 221.66 59.92 219.36 C57.61 215.31 55.32 211.25 53.03 207.2 C50.36 202.46 47.68 197.73 45 193 C37.69 180.1 30.41 167.18 23.18 154.23 C18.81 146.42 14.39 138.65 9.91 130.9 C7.09 126.01 4.47 121.07 2 116 C1.67 116 1.34 116 1 116 Z M-5 246 C-5 246.33 -5 246.66 -5 247 C10.84 247 26.68 247 43 247 C43 246.67 43 246.34 43 246 C27.16 246 11.32 246 -5 246 Z " fill="#E1B718" transform="translate(700,9)"/>
<path d="M0 0 C3.02 0.02 6.04 0 9.06 -0.02 C18.9 -0.03 28.14 0.08 37.53 3.39 C38.65 3.78 39.78 4.17 40.94 4.57 C43.82 5.8 46.68 7.07 49.53 8.39 C50.42 8.8 51.31 9.21 52.23 9.63 C72.45 19.69 86.13 38.24 94.03 58.95 C94.28 59.62 94.54 60.29 94.8 60.97 C96.12 64.61 96.64 67.56 96.53 71.39 C89.49 74.27 82.44 77.14 75.39 79.99 C72.99 80.96 70.59 81.94 68.19 82.92 C64.75 84.33 61.3 85.72 57.86 87.11 C56.78 87.56 55.71 88 54.6 88.46 C53.6 88.86 52.6 89.26 51.57 89.67 C50.69 90.03 49.81 90.38 48.91 90.75 C46.27 91.46 45.01 91.52 42.53 90.39 C41.24 87.9 40.21 85.56 39.22 82.95 C34.54 71.65 29.86 63.86 18.53 58.39 C17.59 57.88 17.59 57.88 16.64 57.36 C9.42 53.96 0.13 54.22 -7.45 56.15 C-9.9 57.09 -12.16 58.15 -14.47 59.39 C-15.54 59.91 -16.62 60.42 -17.72 60.95 C-23.6 66.16 -27.11 73.79 -27.72 81.58 C-27.18 89.79 -24.5 95.76 -18.47 101.39 C-15.33 103.57 -12.02 105.3 -8.6 107.02 C-7.61 107.52 -6.63 108.02 -5.62 108.54 C5.04 113.87 16.08 118.22 27.13 122.63 C56.35 134.26 82.77 148.68 96.69 178.4 C106.36 201.3 105.18 230.95 96.22 253.89 C95.35 255.74 94.46 257.58 93.53 259.39 C93.05 260.36 92.57 261.33 92.07 262.32 C87.48 270.89 81.35 277.58 74.53 284.39 C73.79 285.14 73.05 285.9 72.28 286.67 C50.32 307.59 20.62 311.19 -8.35 310.68 C-36.44 309.8 -58.97 299.02 -78.36 278.88 C-90.39 265.82 -103.11 244.18 -102.47 226.39 C-88.7 222.08 -74.89 217.87 -61.03 213.83 C-59.83 213.47 -58.62 213.11 -57.38 212.74 C-55.69 212.26 -55.69 212.26 -53.98 211.76 C-52.98 211.47 -51.99 211.18 -50.97 210.89 C-48.47 210.39 -48.47 210.39 -45.47 211.39 C-44.59 214.02 -44.59 214.02 -43.78 217.52 C-40.62 229.35 -35.18 241.6 -24.68 248.58 C-13.02 255.1 1.54 256.29 14.4 253.27 C23.83 250.24 29.87 245.12 34.53 236.39 C37.35 227.93 36.61 216.31 32.71 208.33 C24.45 194.8 3.39 189.02 -10.7 183.79 C-40.38 172.74 -66.17 160.68 -82.47 132.39 C-82.9 131.65 -83.33 130.91 -83.77 130.15 C-93.98 111.16 -94.88 83.91 -88.93 63.3 C-84.37 50.5 -78.42 38.69 -69.47 28.39 C-68.8 27.61 -68.13 26.82 -67.43 26.02 C-57.77 15.59 -44.87 7.92 -31.47 3.39 C-30.71 3.12 -29.95 2.86 -29.17 2.58 C-19.6 -0.33 -9.9 -0.06 0 0 Z M-90.47 76.39 C-89.47 78.39 -89.47 78.39 -89.47 78.39 Z M37.53 221.39 C37.53 223.37 37.53 225.35 37.53 227.39 C37.86 227.39 38.19 227.39 38.53 227.39 C38.53 225.41 38.53 223.43 38.53 221.39 C38.2 221.39 37.87 221.39 37.53 221.39 Z " fill="#FAFCFC" transform="translate(102.47216796875,-0.39111328125)"/>
<path d="M0 0 C1.05 0.01 1.05 0.01 2.12 0.02 C2.86 0.02 3.6 0.01 4.36 0.01 C6.86 0.01 9.35 0.02 11.85 0.03 C13.63 0.03 15.41 0.03 17.2 0.03 C22.05 0.03 26.9 0.04 31.76 0.06 C36.82 0.07 41.89 0.07 46.96 0.07 C56.56 0.08 66.16 0.09 75.76 0.11 C86.69 0.14 97.62 0.15 108.55 0.16 C131.03 0.18 153.52 0.22 176 0.26 C176 19.07 176 37.88 176 57.26 C171.83 57.32 167.65 57.38 163.35 57.44 C160.03 57.49 156.71 57.54 153.39 57.6 C149.88 57.65 146.37 57.71 142.86 57.76 C138.84 57.81 134.81 57.88 130.79 57.94 C129.53 57.96 128.26 57.98 126.96 57.99 C125.22 58.02 125.22 58.02 123.44 58.05 C122.41 58.07 121.39 58.08 120.33 58.1 C118.04 58 118.04 58 117 59.26 C116.89 62.38 116.85 65.48 116.85 68.6 C116.84 69.6 116.84 70.59 116.83 71.61 C116.82 74.97 116.81 78.32 116.8 81.68 C116.79 84.07 116.78 86.47 116.77 88.86 C116.75 94.03 116.73 99.2 116.71 104.37 C116.69 111.84 116.66 119.31 116.63 126.79 C116.59 138.91 116.54 151.03 116.5 163.15 C116.46 174.93 116.42 186.71 116.38 198.49 C116.37 199.22 116.37 199.94 116.37 200.69 C116.35 204.33 116.34 207.97 116.33 211.61 C116.21 241.83 116.11 272.04 116 302.26 C94.88 302.26 73.76 302.26 52 302.26 C50.87 299.98 50.88 298.75 50.88 296.22 C50.88 295.37 50.88 294.52 50.88 293.64 C50.88 292.7 50.88 291.76 50.88 290.79 C50.88 289.8 50.88 288.8 50.88 287.78 C50.88 284.43 50.89 281.08 50.89 277.72 C50.89 275.33 50.89 272.94 50.89 270.54 C50.89 265.38 50.89 260.21 50.9 255.04 C50.91 247.58 50.91 240.11 50.91 232.64 C50.91 220.52 50.92 208.4 50.93 196.29 C50.94 184.51 50.95 172.74 50.95 160.97 C50.95 160.24 50.95 159.52 50.95 158.77 C50.95 155.13 50.95 151.49 50.95 147.86 C50.96 117.66 50.98 87.46 51 57.26 C32.19 57.26 13.38 57.26 -6 57.26 C-7.25 54.74 -7.13 53.01 -7.14 50.2 C-7.15 49.14 -7.15 48.09 -7.16 47 C-7.16 45.86 -7.16 44.72 -7.16 43.54 C-7.17 42.37 -7.17 41.2 -7.17 40 C-7.18 37.52 -7.18 35.05 -7.18 32.57 C-7.18 28.77 -7.2 24.98 -7.22 21.18 C-7.22 18.78 -7.23 16.38 -7.23 13.98 C-7.23 12.83 -7.24 11.69 -7.25 10.51 C-7.24 9.46 -7.24 8.41 -7.24 7.32 C-7.24 6.39 -7.24 5.46 -7.24 4.5 C-6.73 -0.11 -4 0.03 0 0 Z " fill="#FBFDFD" transform="translate(1103.99549639225,2.7418373823165894)"/>
<path d="M0 0 C0.79 0.01 1.59 0.03 2.41 0.04 C3.6 0.05 3.6 0.05 4.81 0.06 C6.91 0.23 6.91 0.23 8.91 1.23 C9.53 4.29 9.53 4.29 9.91 7.23 C10.72 6.73 11.53 6.22 12.37 5.7 C21.97 0.26 29.93 -1.36 40.91 0.23 C44.4 1.41 47.04 2.93 49.91 5.23 C50.83 5.95 50.83 5.95 51.77 6.68 C53.19 7.82 54.55 9.02 55.91 10.23 C56.72 9.65 56.72 9.65 57.56 9.06 C59.97 7.39 62.43 5.8 64.91 4.23 C65.56 3.81 66.21 3.38 66.88 2.94 C74.31 -1.16 83.67 -0.9 91.91 0.23 C95.27 1.33 97.38 2.79 99.91 5.23 C100.54 5.77 101.17 6.32 101.82 6.88 C107.89 12.41 110.01 18.13 110.91 26.23 C111.03 29.67 111.02 33.1 111 36.54 C111 37.51 111 38.47 111 39.47 C110.99 42.54 110.98 45.6 110.97 48.67 C110.96 50.76 110.96 52.84 110.96 54.93 C110.94 60.03 110.93 65.13 110.91 70.23 C106.62 70.23 102.33 70.23 97.91 70.23 C96.25 66.93 96.71 63.24 96.66 59.6 C96.63 57.83 96.59 56.05 96.56 54.28 C96.51 51.48 96.47 48.68 96.43 45.89 C96.39 43.19 96.34 40.49 96.29 37.79 C96.28 36.97 96.27 36.14 96.26 35.3 C96.13 28.98 95.97 22 92.09 16.79 C87 13.15 82.06 12.35 75.91 13.23 C73.65 14.12 71.63 15.14 69.54 16.36 C67.91 17.23 67.91 17.23 65.91 17.23 C65.21 18.89 64.56 20.56 63.91 22.23 C63.66 22.87 63.41 23.51 63.15 24.17 C61.12 29.76 60.44 34.71 60.39 40.64 C60.37 41.92 60.37 41.92 60.34 43.23 C60.29 45.91 60.25 48.6 60.22 51.29 C60.19 53.13 60.15 54.97 60.12 56.81 C60.03 61.28 59.96 65.76 59.91 70.23 C57.95 70.31 55.99 70.37 54.03 70.42 C52.4 70.47 52.4 70.47 50.73 70.52 C49.8 70.43 48.87 70.33 47.91 70.23 C45.87 67.17 45.65 66.52 45.62 63.07 C45.61 62.23 45.59 61.4 45.58 60.54 C45.57 59.64 45.57 58.74 45.56 57.81 C45.55 56.88 45.53 55.95 45.52 54.99 C45.47 52.01 45.44 49.03 45.41 46.04 C45.36 42.13 45.31 38.22 45.25 34.31 C45.24 33.42 45.24 32.53 45.23 31.62 C45.15 26.18 44.6 21.41 42.91 16.23 C40.55 14.67 40.55 14.67 37.91 14.23 C36.92 13.9 35.93 13.57 34.91 13.23 C28.7 12.34 23.92 13.66 18.27 16.16 C13 20.78 10.96 26.05 10.42 32.98 C10.13 38.6 10.11 44.23 10.09 49.86 C10.07 51.83 10.05 53.81 10.02 55.79 C9.96 60.6 9.92 65.42 9.91 70.23 C5.62 70.23 1.33 70.23 -3.09 70.23 C-4.49 67.43 -4.23 65.11 -4.24 61.98 C-4.25 60.66 -4.25 59.35 -4.26 57.99 C-4.26 56.55 -4.26 55.11 -4.26 53.67 C-4.26 52.2 -4.27 50.72 -4.27 49.25 C-4.28 46.16 -4.28 43.08 -4.28 39.99 C-4.28 36.03 -4.29 32.07 -4.31 28.11 C-4.32 25.07 -4.32 22.03 -4.32 18.99 C-4.32 17.53 -4.33 16.06 -4.34 14.6 C-4.35 12.56 -4.34 10.52 -4.34 8.48 C-4.34 7.32 -4.34 6.16 -4.34 4.96 C-4.04 1.65 -3.43 0.38 0 0 Z M96.91 26.23 C97.91 28.23 97.91 28.23 97.91 28.23 Z " fill="#FAFCFC" transform="translate(772.09375,378.76953125)"/>
<path d="M0 0 C0.79 0.01 1.59 0.03 2.41 0.04 C3.6 0.05 3.6 0.05 4.81 0.06 C6.91 0.23 6.91 0.23 8.91 1.23 C9.53 4.29 9.53 4.29 9.91 7.23 C10.72 6.73 11.53 6.22 12.37 5.7 C21.97 0.26 29.93 -1.36 40.91 0.23 C44.4 1.41 47.04 2.93 49.91 5.23 C50.83 5.95 50.83 5.95 51.77 6.68 C53.19 7.82 54.55 9.02 55.91 10.23 C56.37 9.84 56.83 9.46 57.3 9.06 C67.89 0.61 77.68 -1.03 90.91 0.23 C97.48 1.82 102.96 6.88 106.91 12.23 C110.03 18.93 110.31 24.62 110.2 31.95 C110.19 33.05 110.19 34.15 110.19 35.28 C110.17 38.76 110.13 42.25 110.09 45.73 C110.08 48.1 110.07 50.48 110.05 52.85 C110.02 58.64 109.97 64.44 109.91 70.23 C105.95 70.23 101.99 70.23 97.91 70.23 C96.29 67.01 96.73 63.47 96.7 59.93 C96.67 58.21 96.64 56.49 96.61 54.78 C96.57 52.08 96.53 49.38 96.5 46.69 C96.7 31.62 96.7 31.62 92.91 17.23 C89.3 13.92 85.33 13.03 80.53 12.67 C75.02 12.96 70.3 14.93 65.91 18.23 C62.35 22.96 60.83 28.49 60.7 34.36 C60.68 35.16 60.66 35.96 60.64 36.78 C60.62 37.64 60.61 38.49 60.59 39.37 C60.56 40.69 60.56 40.69 60.53 42.04 C60.46 44.86 60.4 47.67 60.34 50.48 C60.3 52.39 60.26 54.3 60.21 56.21 C60.11 60.88 60 65.56 59.91 70.23 C55.62 70.23 51.33 70.23 46.91 70.23 C45.77 67.96 45.77 66.7 45.75 64.18 C45.74 63.35 45.73 62.51 45.72 61.65 C45.71 60.75 45.7 59.84 45.7 58.91 C45.67 56.99 45.64 55.08 45.61 53.16 C45.57 50.14 45.53 47.12 45.5 44.1 C45.48 41.18 45.43 38.26 45.38 35.35 C45.38 34.45 45.38 33.56 45.37 32.64 C45.25 26.34 44.67 19.91 39.91 15.29 C34.51 12.42 29.08 12.31 23.27 14 C17.5 16.44 14.58 19.05 11.91 24.76 C9.58 32.84 10.12 41.51 10.09 49.86 C10.07 51.83 10.05 53.81 10.02 55.79 C9.96 60.6 9.92 65.42 9.91 70.23 C5.62 70.23 1.33 70.23 -3.09 70.23 C-4.49 67.43 -4.23 65.11 -4.24 61.98 C-4.25 60.66 -4.25 59.35 -4.26 57.99 C-4.26 56.55 -4.26 55.11 -4.26 53.67 C-4.26 52.2 -4.27 50.72 -4.27 49.25 C-4.28 46.16 -4.28 43.08 -4.28 39.99 C-4.28 36.03 -4.29 32.07 -4.31 28.11 C-4.32 25.07 -4.32 22.03 -4.32 18.99 C-4.32 17.53 -4.33 16.06 -4.34 14.6 C-4.35 12.56 -4.34 10.52 -4.34 8.48 C-4.34 7.32 -4.34 6.16 -4.34 4.96 C-4.04 1.65 -3.43 0.38 0 0 Z M96.91 27.23 C97.91 29.23 97.91 29.23 97.91 29.23 Z " fill="#FAFCFC" transform="translate(92.09375,378.76953125)"/>
<path d="M0 0 C10.19 -0.02 20.38 -0.04 30.88 -0.06 C34.09 -0.07 37.31 -0.08 40.63 -0.09 C43.17 -0.09 45.7 -0.1 48.24 -0.1 C48.9 -0.1 49.57 -0.1 50.25 -0.11 C52.19 -0.11 54.14 -0.11 56.08 -0.11 C57.18 -0.12 58.28 -0.12 59.41 -0.12 C62 0 62 0 64 1 C64 4.96 64 8.92 64 13 C47.5 13 31 13 14 13 C13.67 21.58 13.34 30.16 13 39 C16.08 38.99 19.16 38.98 22.34 38.96 C25.31 38.96 28.29 38.95 31.26 38.95 C33.33 38.94 35.41 38.93 37.48 38.92 C40.45 38.91 43.42 38.91 46.4 38.9 C47.33 38.9 48.26 38.89 49.22 38.89 C50.08 38.89 50.94 38.89 51.83 38.89 C52.59 38.88 53.34 38.88 54.13 38.88 C56 39 56 39 58 40 C58 43.63 58 47.26 58 51 C56.7 51.03 55.41 51.05 54.07 51.08 C49.27 51.17 44.48 51.27 39.68 51.37 C37.6 51.42 35.53 51.46 33.45 51.5 C30.47 51.55 27.48 51.62 24.5 51.68 C23.1 51.71 23.1 51.71 21.67 51.73 C20.81 51.75 19.95 51.77 19.06 51.79 C17.92 51.82 17.92 51.82 16.75 51.84 C14.97 51.81 14.97 51.81 14 53 C13.84 54.92 13.75 56.85 13.68 58.79 C13.64 59.95 13.6 61.12 13.56 62.33 C13.52 63.56 13.48 64.79 13.44 66.06 C13.39 67.3 13.35 68.53 13.31 69.81 C13.2 72.87 13.1 75.94 13 79 C13.63 79 14.27 79 14.92 78.99 C21.51 78.97 28.09 78.96 34.68 78.95 C37.14 78.94 39.6 78.93 42.06 78.92 C45.59 78.91 49.12 78.91 52.65 78.9 C53.75 78.9 54.86 78.89 56 78.89 C57.02 78.89 58.04 78.89 59.09 78.89 C59.99 78.88 60.89 78.88 61.82 78.88 C64 79 64 79 66 80 C66 83.96 66 87.92 66 92 C44.22 92 22.44 92 0 92 C0 61.64 0 31.28 0 0 Z " fill="#FBFDFD" transform="translate(0,357)"/>
<path d="M0 0 C0.9 0 1.8 0.01 2.72 0.01 C3.62 0.01 4.51 0 5.44 0 C7.79 0.13 7.79 0.13 9.79 1.13 C9.79 32.81 9.79 64.49 9.79 97.13 C5.83 97.13 1.87 97.13 -2.21 97.13 C-2.71 93.67 -2.71 93.67 -3.21 90.13 C-6.16 90.13 -7.34 91.92 -9.39 93.84 C-17.1 99.28 -29.11 97.91 -38.04 96.77 C-47.17 94.35 -54.35 86.04 -59.1 78.23 C-63.16 70.59 -63.46 61.52 -61.53 53.16 C-57.68 41.74 -52.05 34.63 -41.21 29.13 C-33.38 25.91 -23.14 25.57 -15.02 28.15 C-12.61 29.34 -10.42 30.59 -8.21 32.13 C-7.1 32.9 -7.1 32.9 -5.95 33.68 C-5.38 34.16 -4.81 34.64 -4.21 35.13 C-4.21 35.79 -4.21 36.45 -4.21 37.13 C-3.55 37.13 -2.89 37.13 -2.21 37.13 C-2.25 36.05 -2.29 34.96 -2.32 33.84 C-2.45 29.83 -2.58 25.82 -2.7 21.81 C-2.75 20.07 -2.81 18.33 -2.86 16.59 C-2.94 14.09 -3.02 11.6 -3.09 9.11 C-3.12 8.32 -3.15 7.54 -3.18 6.73 C-3.23 4.87 -3.23 3 -3.21 1.13 C-2.21 0.13 -2.21 0.13 0 0 Z M-43.09 46.95 C-47.33 53.3 -49.35 59.46 -48.21 67.13 C-46.53 73.2 -44.37 78.27 -39.21 82.13 C-32.23 85.69 -24.47 86.67 -16.84 84.44 C-11.35 81.96 -7.79 78.32 -5.11 72.89 C-2.87 65.96 -3.1 56.78 -5.84 50.01 C-8.85 44.36 -13.16 41.17 -19.21 39.13 C-28.79 37.86 -36.44 39.74 -43.09 46.95 Z M-61.21 56.13 C-60.21 58.13 -60.21 58.13 -60.21 58.13 Z M-3.21 60.13 C-3.21 62.11 -3.21 64.09 -3.21 66.13 C-2.88 66.13 -2.55 66.13 -2.21 66.13 C-2.21 64.15 -2.21 62.17 -2.21 60.13 C-2.54 60.13 -2.87 60.13 -3.21 60.13 Z " fill="#FAFCFC" transform="translate(691.21484375,351.8671875)"/>
<path d="M0 0 C0.9 0 1.8 0.01 2.72 0.01 C3.62 0.01 4.51 0 5.44 0 C7.79 0.13 7.79 0.13 9.79 1.13 C10.2 3.2 10.2 3.2 10.41 5.7 C10.48 6.52 10.56 7.35 10.64 8.2 C10.69 8.84 10.73 9.48 10.79 10.13 C11.12 9.14 11.45 8.15 11.79 7.13 C17.29 2.82 22.76 0.24 29.79 0.13 C30.76 0.05 31.74 -0.03 32.75 -0.12 C42.36 -0.66 49.31 1.91 56.91 7.77 C62.67 13.1 67.3 20.32 67.96 28.26 C68.32 41.56 68.57 51.27 59.16 61.51 C49.97 69.97 41.36 70.95 29.25 70.53 C23.45 70.15 18.39 68.81 14.25 64.56 C12.73 62.87 12.73 62.87 9.79 62.13 C9.79 73.02 9.79 83.91 9.79 95.13 C5.83 95.13 1.87 95.13 -2.21 95.13 C-2.37 82.89 -2.52 70.66 -2.66 58.42 C-2.72 52.73 -2.79 47.05 -2.86 41.37 C-2.93 35.89 -3 30.41 -3.06 24.93 C-3.08 22.84 -3.11 20.74 -3.14 18.65 C-3.17 15.72 -3.21 12.8 -3.24 9.88 C-3.25 9 -3.26 8.12 -3.28 7.22 C-3.29 5.19 -3.26 3.16 -3.21 1.13 C-2.21 0.13 -2.21 0.13 0 0 Z M14.35 21.07 C10.27 27.13 8.85 32.89 9.79 40.13 C11.46 46.2 13.64 51.27 18.79 55.13 C26.43 59.02 34.33 59.3 42.6 57.13 C47.6 53.99 51.89 49.81 53.79 44.13 C54.74 30.99 54.74 30.99 49.79 19.13 C45.99 14.93 41.61 12.51 35.99 11.76 C26.61 11.55 20.29 13.6 14.35 21.07 Z M54.79 32.13 C54.79 34.44 54.79 36.75 54.79 39.13 C55.12 39.13 55.45 39.13 55.79 39.13 C55.79 36.82 55.79 34.51 55.79 32.13 C55.46 32.13 55.13 32.13 54.79 32.13 Z " fill="#FAFCFC" transform="translate(232.21484375,378.8671875)"/>
<path d="M0 0 C9.07 5.94 15.23 12.92 17.88 23.5 C17.88 28.12 17.88 32.74 17.88 37.5 C0.06 37.5 -17.76 37.5 -36.12 37.5 C-33.36 46.98 -33.36 46.98 -26.26 52.46 C-18.56 55.52 -9.35 55.92 -1.5 53.19 C1.38 51.75 2.77 50.78 4.88 48.5 C8.7 50.06 11.17 52.42 13.88 55.5 C13.88 58.5 13.88 58.5 12.44 60 C11.78 60.5 11.12 60.99 10.44 61.5 C9.8 62 9.16 62.49 8.5 63 C1.61 66.93 -5.14 68.03 -13 67.94 C-14.32 67.92 -14.32 67.92 -15.66 67.91 C-26.06 67.63 -33.52 65.07 -41.12 57.78 C-48.43 49.47 -51.64 40.9 -51.44 29.88 C-50.47 19.46 -45.36 11.31 -37.88 4.25 C-27.63 -3.85 -11.84 -6.04 0 0 Z M-33.12 17.5 C-35.86 21.76 -35.86 21.76 -37.12 26.5 C-23.26 26.5 -9.4 26.5 4.88 26.5 C2.49 16.74 2.49 16.74 -4.12 11.5 C-14.41 6.45 -25.82 8.05 -33.12 17.5 Z M-50.12 26.5 C-49.12 28.5 -49.12 28.5 -49.12 28.5 Z M-36.12 27.5 C-36.12 27.83 -36.12 28.16 -36.12 28.5 C-22.26 28.5 -8.4 28.5 5.88 28.5 C5.88 28.17 5.88 27.84 5.88 27.5 C-7.99 27.5 -21.85 27.5 -36.12 27.5 Z " fill="#F9FBFB" transform="translate(421.125,381.5)"/>
<path d="M0 0 C6.53 6.39 10.47 12.48 11.75 21.69 C11.75 25.32 11.75 28.95 11.75 32.69 C-6.4 32.69 -24.55 32.69 -43.25 32.69 C-39.83 42.66 -39.83 42.66 -32.39 47.58 C-25.01 50.54 -15.67 51.42 -8.19 48.38 C-5.7 46.95 -3.44 45.53 -1.25 43.69 C2.54 45.18 4.56 47.27 6.75 50.69 C6.88 52.69 6.88 52.69 5.75 54.69 C-0.45 61.04 -7.85 63.03 -16.59 63.16 C-17.43 63.15 -18.26 63.14 -19.12 63.12 C-20 63.12 -20.88 63.11 -21.78 63.1 C-32.89 62.79 -40.03 59.84 -48.09 52.06 C-51.01 48.86 -53.35 45.58 -55.25 41.69 C-55.79 40.58 -55.79 40.58 -56.35 39.46 C-59.37 30.17 -58.02 18.89 -53.79 10.27 C-48.68 1.68 -41.93 -3.63 -32.43 -6.95 C-19.81 -9.06 -10.39 -7.39 0 0 Z M-39.25 11.69 C-41.89 15.82 -43.25 18.72 -43.25 23.69 C-29.06 23.69 -14.87 23.69 -0.25 23.69 C-0.75 22.7 -0.75 22.7 -1.25 21.69 C-1.25 20.7 -1.25 19.71 -1.25 18.69 C-1.91 18.36 -2.57 18.03 -3.25 17.69 C-3.46 16.62 -3.66 15.54 -3.88 14.44 C-5.74 9.34 -8.5 7.96 -13.25 5.69 C-22.8 1.75 -32.12 4.22 -39.25 11.69 Z " fill="#F9FBFB" transform="translate(960.25,386.3125)"/>
<path d="M0 0 C8.73 5.34 15.64 12.78 18.11 22.8 C19.06 27.54 19.82 32.21 19.44 37.06 C18.44 38.06 18.44 38.06 16.27 38.18 C15.31 38.18 14.35 38.18 13.37 38.18 C12.29 38.18 11.2 38.18 10.09 38.18 C8.33 38.17 8.33 38.17 6.53 38.16 C5.33 38.16 4.13 38.16 2.9 38.16 C-0.94 38.15 -4.78 38.14 -8.62 38.12 C-11.22 38.12 -13.82 38.12 -16.42 38.11 C-22.8 38.1 -29.18 38.08 -35.56 38.06 C-34.94 39.68 -34.31 41.3 -33.68 42.91 C-33.16 44.26 -33.16 44.26 -32.62 45.64 C-30.34 50.86 -26.67 52.92 -21.56 55.06 C-18.74 55.48 -15.98 55.48 -13.12 55.44 C-12.4 55.45 -11.67 55.46 -10.93 55.47 C-3.75 55.43 1.39 52.91 7.44 49.06 C10.37 51.92 13.08 54.71 15.44 58.06 C6.12 66.97 -2.23 68.67 -14.87 68.53 C-25.94 68.16 -32.8 64.94 -40.56 57.06 C-41.12 56.53 -41.68 55.99 -42.25 55.44 C-47.86 49.59 -50.71 42.08 -51 34 C-50.51 23.71 -46.47 13.44 -38.94 6.31 C-28.12 -2.28 -13.12 -5.88 0 0 Z M-31.06 16.56 C-33.69 19.92 -35.56 22.72 -35.56 27.06 C-22.03 27.06 -8.5 27.06 5.44 27.06 C4.42 20.96 3.46 17.66 -1.25 13.61 C-10.9 6.83 -23.05 7.54 -31.06 16.56 Z M-35.56 28.06 C-35.56 28.39 -35.56 28.72 -35.56 29.06 C-21.7 29.06 -7.84 29.06 6.44 29.06 C6.44 28.73 6.44 28.4 6.44 28.06 C-7.42 28.06 -21.28 28.06 -35.56 28.06 Z M-49.56 29.06 C-48.56 32.06 -48.56 32.06 -48.56 32.06 Z M-49.56 36.06 C-48.56 39.06 -48.56 39.06 -48.56 39.06 Z " fill="#F9FBFB" transform="translate(503.5625,380.9375)"/>
<path d="M0 0 C9.99 6.16 16.98 13.56 19.84 25.07 C21.69 35.2 20.73 45.46 14.85 54.09 C9.37 61.19 3.26 66.06 -5.62 68 C-8.68 68.24 -11.74 68.23 -14.81 68.25 C-15.63 68.27 -16.44 68.29 -17.28 68.31 C-25.79 68.37 -32.67 66.64 -38.94 60.62 C-39.74 59.87 -40.54 59.12 -41.36 58.35 C-47.52 51.95 -52.06 45.59 -52.23 36.51 C-52.22 35.76 -52.2 35.02 -52.19 34.25 C-52.18 33.47 -52.17 32.68 -52.16 31.88 C-51.83 22.69 -48.82 14.29 -42.43 7.53 C-31.31 -1.9 -13.8 -6.46 0 0 Z M-33 17.12 C-37.42 24.94 -39.92 32.1 -37.62 41 C-35.61 46.89 -32.79 50.56 -27.62 54 C-20.73 56.9 -12.46 57.16 -5.31 55 C0.72 50.51 5.15 45.61 6.38 38 C7.02 30.29 5.51 22.86 1.75 16.06 C-4.01 11.06 -10.26 9.25 -17.84 9.55 C-23.74 10.51 -28.58 13.17 -33 17.12 Z M6.38 28 C7.38 30 7.38 30 7.38 30 Z " fill="#F9FBFB" transform="translate(1185.625,381)"/>
<path d="M0 0 C0.79 0.01 1.59 0.03 2.41 0.04 C3.6 0.05 3.6 0.05 4.81 0.06 C6.91 0.23 6.91 0.23 8.91 1.23 C9.53 4.29 9.53 4.29 9.91 7.23 C10.68 6.81 11.45 6.39 12.25 5.95 C18.22 2.81 23.13 0.33 29.91 0.23 C31.29 0.12 31.29 0.12 32.71 0.01 C41.3 -0.43 47.4 1.39 53.98 6.99 C60.64 13.86 62.25 22.16 62.25 31.53 C62.23 32.51 62.22 33.48 62.2 34.49 C62.19 35.52 62.19 36.55 62.19 37.61 C62.17 40.86 62.13 44.11 62.09 47.36 C62.08 49.57 62.06 51.79 62.05 54.01 C62.02 59.42 61.97 64.82 61.91 70.23 C57.62 70.23 53.33 70.23 48.91 70.23 C47.77 67.96 47.77 66.7 47.75 64.18 C47.74 63.35 47.73 62.51 47.72 61.65 C47.71 60.75 47.7 59.84 47.7 58.91 C47.67 56.99 47.64 55.08 47.61 53.16 C47.57 50.14 47.53 47.12 47.5 44.1 C47.48 41.18 47.43 38.26 47.38 35.35 C47.38 34.45 47.38 33.56 47.37 32.64 C47.26 26.61 46.76 20.03 42.21 15.57 C35.78 12.67 30.06 12.03 23.22 14.01 C17.46 16.41 14.57 19.08 11.91 24.76 C9.58 32.84 10.12 41.51 10.09 49.86 C10.07 51.83 10.05 53.81 10.02 55.79 C9.96 60.6 9.92 65.42 9.91 70.23 C5.62 70.23 1.33 70.23 -3.09 70.23 C-4.49 67.43 -4.23 65.11 -4.24 61.98 C-4.25 60.66 -4.25 59.35 -4.26 57.99 C-4.26 56.55 -4.26 55.11 -4.26 53.67 C-4.26 52.2 -4.27 50.72 -4.27 49.25 C-4.28 46.16 -4.28 43.08 -4.28 39.99 C-4.28 36.03 -4.29 32.07 -4.31 28.11 C-4.32 25.07 -4.32 22.03 -4.32 18.99 C-4.32 17.53 -4.33 16.06 -4.34 14.6 C-4.35 12.56 -4.34 10.52 -4.34 8.48 C-4.34 7.32 -4.34 6.16 -4.34 4.96 C-4.04 1.65 -3.43 0.38 0 0 Z " fill="#FAFCFC" transform="translate(547.09375,378.76953125)"/>
<path d="M0 0 C0.79 0.01 1.59 0.03 2.41 0.04 C3.6 0.05 3.6 0.05 4.81 0.06 C6.91 0.23 6.91 0.23 8.91 1.23 C9.64 3.54 10.31 5.88 10.91 8.23 C11.87 7.36 11.87 7.36 12.84 6.48 C22.12 -0.34 31.63 -1.26 42.91 0.23 C49.75 2.22 55.1 7.29 58.91 13.23 C61.97 19.89 62.31 25.46 62.2 32.73 C62.19 33.81 62.19 34.88 62.19 35.99 C62.17 39.41 62.13 42.82 62.09 46.23 C62.08 48.55 62.07 50.88 62.05 53.2 C62.02 58.88 61.97 64.55 61.91 70.23 C59.95 70.31 57.99 70.37 56.03 70.42 C54.4 70.47 54.4 70.47 52.73 70.52 C51.8 70.43 50.87 70.33 49.91 70.23 C47.86 67.16 47.66 66.52 47.64 63.05 C47.62 62.22 47.61 61.38 47.6 60.51 C47.6 59.61 47.6 58.71 47.6 57.78 C47.57 55.86 47.55 53.94 47.52 52.02 C47.49 49 47.47 45.98 47.45 42.97 C47.43 40.05 47.39 37.13 47.35 34.21 C47.35 33.32 47.35 32.42 47.35 31.5 C47.26 26 46.5 22.11 43.91 17.23 C39.8 13.52 34.54 12.65 29.15 12.89 C25.45 13.45 22.34 14.75 18.91 16.23 C17.92 16.56 16.93 16.89 15.91 17.23 C14.8 19.4 14.8 19.4 13.91 22.23 C13.4 23.41 12.9 24.6 12.38 25.82 C10.63 30.49 10.43 34.81 10.39 39.76 C10.38 40.64 10.36 41.51 10.34 42.42 C10.29 45.19 10.25 47.96 10.22 50.73 C10.19 52.62 10.15 54.51 10.12 56.4 C10.03 61.01 9.96 65.62 9.91 70.23 C5.62 70.23 1.33 70.23 -3.09 70.23 C-4.49 67.43 -4.23 65.11 -4.24 61.98 C-4.25 60.66 -4.25 59.35 -4.26 57.99 C-4.26 56.55 -4.26 55.11 -4.26 53.67 C-4.26 52.2 -4.27 50.72 -4.27 49.25 C-4.28 46.16 -4.28 43.08 -4.28 39.99 C-4.28 36.03 -4.29 32.07 -4.31 28.11 C-4.32 25.07 -4.32 22.03 -4.32 18.99 C-4.32 17.53 -4.33 16.06 -4.34 14.6 C-4.35 12.56 -4.34 10.52 -4.34 8.48 C-4.34 7.32 -4.34 6.16 -4.34 4.96 C-4.04 1.65 -3.43 0.38 0 0 Z " fill="#FAFCFC" transform="translate(996.09375,378.76953125)"/>
<path d="M0 0 C0.92 -0.01 1.84 -0.03 2.79 -0.04 C10.73 0.07 17.33 2.15 23.94 6.56 C23.33 10.69 21.9 13.89 19.94 17.56 C19.39 17.37 18.85 17.18 18.29 16.98 C7.93 13.4 -0.84 11.11 -11.56 14.75 C-14.76 17.07 -15.36 18.72 -16.06 22.56 C-15.64 24.7 -15.64 24.7 -15.06 26.56 C-14.44 26.67 -13.82 26.78 -13.18 26.89 C-11.28 27.24 -9.38 27.58 -7.47 27.94 C-5.09 28.37 -2.7 28.79 -0.31 29.19 C7.22 30.52 13.76 31.89 19.94 36.56 C20.56 37.02 21.17 37.48 21.81 37.95 C24.85 40.74 25.82 42.8 26.44 46.91 C26.61 52.14 26.49 56.31 24.38 61.12 C17.12 68.38 10.35 70.78 0.16 70.94 C-0.78 70.94 -1.72 70.94 -2.69 70.94 C-3.66 70.94 -4.63 70.94 -5.63 70.94 C-13.37 70.81 -19.91 69.67 -27.06 66.56 C-27.81 66.27 -28.56 65.98 -29.34 65.68 C-31.06 64.56 -31.06 64.56 -31.96 62.7 C-32.09 59.86 -31.22 58.64 -29.62 56.31 C-29.15 55.61 -28.68 54.9 -28.19 54.17 C-27.82 53.64 -27.45 53.11 -27.06 52.56 C-26.23 52.85 -26.23 52.85 -25.38 53.15 C-22.95 53.98 -20.51 54.77 -18.06 55.56 C-16.89 55.95 -15.71 56.35 -14.5 56.75 C-10.34 57.75 -6.14 57.78 -1.88 57.81 C-0.84 57.83 -0.84 57.83 0.22 57.84 C4.23 57.82 7.33 57.33 10.94 55.56 C10.94 52.59 10.94 49.62 10.94 46.56 C4.58 43.52 -1.67 42.35 -8.59 41.19 C-15.58 39.92 -22.12 38.06 -27 32.62 C-30.37 27.63 -30.71 22.52 -30.06 16.56 C-27.65 10.09 -23.55 6.13 -17.62 2.75 C-11.81 0.25 -6.24 0.06 0 0 Z M12.94 49.56 C13.94 53.56 13.94 53.56 13.94 53.56 Z " fill="#FAFCFC" transform="translate(1250.0625,378.4375)"/>
<path d="M0 0 C1.33 0.02 1.33 0.02 2.69 0.04 C4.02 0.05 4.02 0.05 5.38 0.06 C7.69 0.23 7.69 0.23 9.69 1.23 C10.1 4.39 10.1 4.39 10.31 8.29 C10.39 9.58 10.46 10.87 10.54 12.2 C10.59 13.2 10.64 14.2 10.69 15.23 C12.39 15.21 12.39 15.21 14.12 15.2 C15.6 15.19 17.08 15.18 18.56 15.17 C19.31 15.16 20.06 15.15 20.82 15.14 C26.46 15.12 26.46 15.12 28.69 16.23 C28.69 19.86 28.69 23.49 28.69 27.23 C22.42 27.23 16.15 27.23 9.69 27.23 C9.81 32.84 9.93 38.44 10.06 44.05 C10.1 45.95 10.14 47.86 10.18 49.76 C10.24 52.51 10.31 55.25 10.37 57.99 C10.39 58.84 10.4 59.69 10.42 60.57 C10.44 61.37 10.46 62.17 10.48 62.99 C10.51 64.04 10.51 64.04 10.53 65.11 C10.71 67.51 11.22 69.87 11.69 72.23 C17.96 72.23 24.23 72.23 30.69 72.23 C33.69 78.23 33.69 78.23 33.69 82.23 C28.56 84.76 24.38 85.7 18.62 85.61 C17.94 85.62 17.26 85.63 16.56 85.64 C10.83 85.61 6.85 84.24 2.64 80.33 C1.8 79.32 1.8 79.32 0.94 78.29 C0.08 77.29 0.08 77.29 -0.8 76.27 C-3.35 72.84 -4.57 70.23 -4.54 65.92 C-4.54 64.66 -4.54 64.66 -4.54 63.37 C-4.53 62.48 -4.52 61.58 -4.51 60.65 C-4.5 59.73 -4.5 58.8 -4.5 57.84 C-4.49 54.89 -4.46 51.94 -4.44 48.98 C-4.43 46.98 -4.42 44.97 -4.41 42.96 C-4.39 38.05 -4.35 33.14 -4.31 28.23 C-7.61 27.9 -10.91 27.57 -14.31 27.23 C-14.51 25.42 -14.69 23.61 -14.88 21.79 C-14.98 20.78 -15.08 19.77 -15.19 18.73 C-15.23 17.91 -15.27 17.08 -15.31 16.23 C-14.31 15.23 -14.31 15.23 -12.03 15.13 C-10.65 15.15 -10.65 15.15 -9.25 15.17 C-8.33 15.18 -7.41 15.19 -6.46 15.2 C-5.75 15.21 -5.04 15.22 -4.31 15.23 C-4.34 14.32 -4.36 13.4 -4.38 12.46 C-4.4 11.27 -4.42 10.08 -4.44 8.86 C-4.46 7.67 -4.48 6.49 -4.51 5.27 C-4.27 1.62 -3.76 0.38 0 0 Z M-3.31 68.23 C-2.31 70.23 -2.31 70.23 -2.31 70.23 Z M17.69 74.23 C17.69 74.56 17.69 74.89 17.69 75.23 C19.67 75.23 21.65 75.23 23.69 75.23 C23.69 74.9 23.69 74.57 23.69 74.23 C21.71 74.23 19.73 74.23 17.69 74.23 Z " fill="#FAFCFC" transform="translate(1090.3125,363.76953125)"/>
<path d="M0 0 C0.79 0.01 1.59 0.03 2.41 0.04 C3.6 0.05 3.6 0.05 4.81 0.06 C6.91 0.23 6.91 0.23 8.91 1.23 C9.53 4.29 9.53 4.29 9.91 7.23 C10.8 6.71 11.7 6.2 12.62 5.66 C20.21 1.46 25.09 -0.77 33.91 1.23 C33.91 5.19 33.91 9.15 33.91 13.23 C31.12 13.6 31.12 13.6 28.28 13.98 C21.75 15.09 17.96 16.77 13.66 21.92 C10.16 28.53 9.61 35.61 9.49 42.98 C9.47 43.77 9.45 44.56 9.43 45.37 C9.37 47.84 9.33 50.32 9.28 52.79 C9.24 54.49 9.2 56.18 9.16 57.87 C9.07 61.99 8.98 66.11 8.91 70.23 C4.95 70.23 0.99 70.23 -3.09 70.23 C-4.49 67.43 -4.23 65.11 -4.24 61.98 C-4.25 60.66 -4.25 59.35 -4.26 57.99 C-4.26 56.55 -4.26 55.11 -4.26 53.67 C-4.26 52.2 -4.27 50.72 -4.27 49.25 C-4.28 46.16 -4.28 43.08 -4.28 39.99 C-4.28 36.03 -4.29 32.07 -4.31 28.11 C-4.32 25.07 -4.32 22.03 -4.32 18.99 C-4.32 17.53 -4.33 16.06 -4.34 14.6 C-4.35 12.56 -4.34 10.52 -4.34 8.48 C-4.34 7.32 -4.34 6.16 -4.34 4.96 C-4.04 1.65 -3.43 0.38 0 0 Z " fill="#FAFCFC" transform="translate(325.09375,378.76953125)"/>
<path d="M0 0 C0.9 0 1.8 0.01 2.72 0.01 C3.62 0.01 4.51 0 5.44 0 C7.79 0.13 7.79 0.13 9.79 1.13 C9.79 23.9 9.79 46.67 9.79 70.13 C5.83 70.13 1.87 70.13 -2.21 70.13 C-2.37 61.15 -2.52 52.17 -2.66 43.2 C-2.72 39.03 -2.79 34.86 -2.86 30.69 C-2.93 26.67 -3 22.65 -3.06 18.63 C-3.08 17.09 -3.11 15.55 -3.14 14.02 C-3.17 11.87 -3.21 9.73 -3.24 7.58 C-3.27 5.74 -3.27 5.74 -3.3 3.87 C-3.19 0.19 -3.19 0.19 0 0 Z " fill="#FBFDFD" transform="translate(731.21484375,378.8671875)"/>
<path d="M0 0 C0.33 0 0.66 0 1 0 C1 98.34 1 196.68 1 298 C0.67 298 0.34 298 0 298 C0 199.66 0 101.32 0 0 Z " fill="#FBFDFD" transform="translate(879,5)"/>
<path d="M0 0 C0.33 0 0.66 0 1 0 C1 98.34 1 196.68 1 298 C0.67 298 0.34 298 0 298 C0 199.66 0 101.32 0 0 Z " fill="#FBFDFD" transform="translate(245,5)"/>
<path d="M0 0 C2.44 1.5 2.44 1.5 4 4 C4.61 7.81 5.08 11.5 2.75 14.74 C-0.04 16.75 -2.42 16.6 -5.77 16.48 C-8.3 15.94 -9.35 15.3 -11.12 13.44 C-13 10 -13 10 -13.12 6.38 C-10.81 -0.57 -6.85 -1.99 0 0 Z " fill="#F8FAFA" transform="translate(739,351)"/>
<path d="M0 0 C0.33 0 0.66 0 1 0 C1 75.9 1 151.8 1 230 C0.67 230 0.34 230 0 230 C0 154.1 0 78.2 0 0 Z " fill="#FBFDFD" transform="translate(458,73)"/>
<path d="M0 0 C0.33 0 0.66 0 1 0 C1 30.69 1 61.38 1 93 C0.67 93 0.34 93 0 93 C0 62.31 0 31.62 0 0 Z " fill="#FBFDFD" transform="translate(228,381)"/>
<path d="M0 0 C0.33 0 0.66 0 1 0 C1 21.12 1 42.24 1 64 C0.67 64 0.34 64 0 64 C0 42.88 0 21.76 0 0 Z " fill="#FBFDFD" transform="translate(727,381)"/>
<path d="M0 0 C0.33 0 0.66 0 1 0 C1 10.56 1 21.12 1 32 C0.67 32 0.34 32 0 32 C0 21.44 0 10.88 0 0 Z " fill="#FBFDFD" transform="translate(687,354)"/>
<path d="M0 0 C0.33 0 0.66 0 1 0 C1 3.96 1 7.92 1 12 C0.67 12 0.34 12 0 12 C0 8.04 0 4.08 0 0 Z " fill="#FBFDFD" transform="translate(10,86)"/>
<path d="M0 0 C2.97 0 5.94 0 9 0 C9 0.33 9 0.66 9 1 C6.03 1 3.06 1 0 1 C0 0.67 0 0.34 0 0 Z " fill="#FBFDFD" transform="translate(1245,378)"/>
<path d="M0 0 C2.64 0 5.28 0 8 0 C8 0.33 8 0.66 8 1 C5.36 1 2.72 1 0 1 C0 0.67 0 0.34 0 0 Z " fill="#FBFDFD" transform="translate(1166,378)"/>
<path d="M0 0 C2.64 0 5.28 0 8 0 C8 0.33 8 0.66 8 1 C5.36 1 2.72 1 0 1 C0 0.67 0 0.34 0 0 Z " fill="#FBFDFD" transform="translate(1026,378)"/>
<path d="M0 0 C2.64 0 5.28 0 8 0 C8 0.33 8 0.66 8 1 C5.36 1 2.72 1 0 1 C0 0.67 0 0.34 0 0 Z " fill="#FBFDFD" transform="translate(851,378)"/>
<path d="M0 0 C2.64 0 5.28 0 8 0 C8 0.33 8 0.66 8 1 C5.36 1 2.72 1 0 1 C0 0.67 0 0.34 0 0 Z " fill="#FBFDFD" transform="translate(801,378)"/>
<path d="M0 0 C2.64 0 5.28 0 8 0 C8 0.33 8 0.66 8 1 C5.36 1 2.72 1 0 1 C0 0.67 0 0.34 0 0 Z " fill="#FBFDFD" transform="translate(661,378)"/>
<path d="M0 0 C2.64 0 5.28 0 8 0 C8 0.33 8 0.66 8 1 C5.36 1 2.72 1 0 1 C0 0.67 0 0.34 0 0 Z " fill="#FBFDFD" transform="translate(577,378)"/>
<path d="M0 0 C2.64 0 5.28 0 8 0 C8 0.33 8 0.66 8 1 C5.36 1 2.72 1 0 1 C0 0.67 0 0.34 0 0 Z " fill="#FBFDFD" transform="translate(485,378)"/>
<path d="M0 0 C2.64 0 5.28 0 8 0 C8 0.33 8 0.66 8 1 C5.36 1 2.72 1 0 1 C0 0.67 0 0.34 0 0 Z " fill="#FBFDFD" transform="translate(402,378)"/>
<path d="M0 0 C2.64 0 5.28 0 8 0 C8 0.33 8 0.66 8 1 C5.36 1 2.72 1 0 1 C0 0.67 0 0.34 0 0 Z " fill="#FBFDFD" transform="translate(262,378)"/>
<path d="M0 0 C2.64 0 5.28 0 8 0 C8 0.33 8 0.66 8 1 C5.36 1 2.72 1 0 1 C0 0.67 0 0.34 0 0 Z " fill="#FBFDFD" transform="translate(171,378)"/>
<path d="M0 0 C2.64 0 5.28 0 8 0 C8 0.33 8 0.66 8 1 C5.36 1 2.72 1 0 1 C0 0.67 0 0.34 0 0 Z " fill="#FBFDFD" transform="translate(121,378)"/>
<path d="M0 0 C0.33 0 0.66 0 1 0 C1 2.31 1 4.62 1 7 C0.67 7 0.34 7 0 7 C0 4.69 0 2.38 0 0 Z " fill="#FBFDFD" transform="translate(1133,411)"/>
<path d="M0 0 C0.33 0 0.66 0 1 0 C1 2.31 1 4.62 1 7 C0.67 7 0.34 7 0 7 C0 4.69 0 2.38 0 0 Z " fill="#FBFDFD" transform="translate(1074,381)"/>
<path d="M0 0 C2.31 0 4.62 0 7 0 C7 0.33 7 0.66 7 1 C4.69 1 2.38 1 0 1 C0 0.67 0 0.34 0 0 Z " fill="#FBFDFD" transform="translate(935,378)"/>
<path d="M0 0 C0.33 0 0.66 0 1 0 C1 1.65 1 3.3 1 5 C0.67 5 0.34 5 0 5 C0 3.35 0 1.7 0 0 Z " fill="#FBFDFD" transform="translate(1219,398)"/>
<path d="" fill="#FBFDFD" transform="translate(0,0)"/>
<path d="M0 0 C2 1 2 1 2 1 Z " fill="#FBFDFD" transform="translate(354,378)"/>
<path d="" fill="#FBFDFD" transform="translate(0,0)"/>
<path d="" fill="#FBFDFD" transform="translate(0,0)"/>
</svg>
